<mxfile host="app.diagrams.net" agent="Mozilla/5.0 (Windows NT 10.0; Win64; x64; rv:139.0) Gecko/20100101 Firefox/139.0" version="27.1.5">
  <diagram name="P치gina-1" id="BB7kHsxRKJ45SInf0d5G">
    <mxGraphModel dx="899" dy="527" grid="1" gridSize="10" guides="1" tooltips="1" connect="1" arrows="1" fold="1" page="1" pageScale="1" pageWidth="850" pageHeight="1100" math="0" shadow="0">
      <root>
        <mxCell id="0" />
        <mxCell id="1" parent="0" />
        <mxCell id="UjU7s5MsbhjqXIAKfT-q-21" value="" style="group" vertex="1" connectable="0" parent="1">
          <mxGeometry x="575" y="86" width="170" height="170" as="geometry" />
        </mxCell>
        <mxCell id="UjU7s5MsbhjqXIAKfT-q-5" value="Tarjeta madre" style="whiteSpace=wrap;html=1;aspect=fixed;fontColor=#FFFFFF;strokeColor=none;fillColor=#267E4D;shadow=0;glass=0;" vertex="1" parent="UjU7s5MsbhjqXIAKfT-q-21">
          <mxGeometry width="170" height="170" as="geometry" />
        </mxCell>
        <mxCell id="UjU7s5MsbhjqXIAKfT-q-6" value="Pines de encendido" style="rounded=1;whiteSpace=wrap;html=1;strokeColor=none;fillColor=#000000;fontColor=#FFFFFF;" vertex="1" parent="UjU7s5MsbhjqXIAKfT-q-21">
          <mxGeometry x="8" y="9" width="80" height="30" as="geometry" />
        </mxCell>
        <mxCell id="UjU7s5MsbhjqXIAKfT-q-25" value="" style="group;fontColor=light-dark(#ffffff, #ededed);" vertex="1" connectable="0" parent="1">
          <mxGeometry x="170" y="50" width="360" height="300" as="geometry" />
        </mxCell>
        <mxCell id="UjU7s5MsbhjqXIAKfT-q-9" value="Placa de pruebas" style="rounded=1;whiteSpace=wrap;html=1;fillColor=#D0A651;strokeColor=none;verticalAlign=top;fontColor=light-dark(#ffffff, #454545);" vertex="1" parent="UjU7s5MsbhjqXIAKfT-q-25">
          <mxGeometry width="360" height="300" as="geometry" />
        </mxCell>
        <mxCell id="UjU7s5MsbhjqXIAKfT-q-11" value="DIP switch" style="rounded=1;whiteSpace=wrap;html=1;strokeColor=none;fillColor=light-dark(#0245dc, #ededed);fontColor=#FFFFFF;" vertex="1" parent="UjU7s5MsbhjqXIAKfT-q-25">
          <mxGeometry x="130" y="130" width="83.33" height="25" as="geometry" />
        </mxCell>
        <mxCell id="UjU7s5MsbhjqXIAKfT-q-12" value="Buzzer" style="ellipse;whiteSpace=wrap;html=1;aspect=fixed;fillColor=#000000;strokeColor=none;fontColor=#FFFFFF;" vertex="1" parent="UjU7s5MsbhjqXIAKfT-q-25">
          <mxGeometry x="290" y="120" width="45" height="45" as="geometry" />
        </mxCell>
        <mxCell id="UjU7s5MsbhjqXIAKfT-q-13" value="Microcontrolador" style="rounded=1;whiteSpace=wrap;html=1;fillColor=light-dark(#0E9DA2,#EDEDED);strokeColor=none;fontColor=light-dark(#ffffff, #ededed);" vertex="1" parent="UjU7s5MsbhjqXIAKfT-q-25">
          <mxGeometry x="20" y="180" width="130" height="100" as="geometry" />
        </mxCell>
        <mxCell id="UjU7s5MsbhjqXIAKfT-q-14" value="M칩dulo de relevadores" style="rounded=1;whiteSpace=wrap;html=1;fillColor=light-dark(#0E9DA2,#EDEDED);fontColor=#FFFFFF;strokeColor=none;" vertex="1" parent="UjU7s5MsbhjqXIAKfT-q-25">
          <mxGeometry x="220" y="30" width="120" height="60" as="geometry" />
        </mxCell>
        <mxCell id="UjU7s5MsbhjqXIAKfT-q-15" value="Reloj de precisi칩n en tiempo real" style="rounded=1;whiteSpace=wrap;html=1;fillColor=light-dark(#0E9DA2,#EDEDED);strokeColor=none;fontColor=light-dark(#ffffff, #ededed);" vertex="1" parent="UjU7s5MsbhjqXIAKfT-q-25">
          <mxGeometry x="200" y="206" width="120" height="60" as="geometry" />
        </mxCell>
        <mxCell id="UjU7s5MsbhjqXIAKfT-q-16" value="Buzzer" style="ellipse;whiteSpace=wrap;html=1;aspect=fixed;fillColor=#000000;strokeColor=none;fontColor=#FFFFFF;" vertex="1" parent="UjU7s5MsbhjqXIAKfT-q-25">
          <mxGeometry x="237.5" y="120" width="45" height="45" as="geometry" />
        </mxCell>
        <mxCell id="UjU7s5MsbhjqXIAKfT-q-17" value="&lt;div&gt;Bot칩n de pulso&lt;/div&gt;" style="rounded=0;whiteSpace=wrap;html=1;strokeColor=none;fillColor=#ACACAC;" vertex="1" parent="UjU7s5MsbhjqXIAKfT-q-25">
          <mxGeometry x="45" y="120" width="60" height="35" as="geometry" />
        </mxCell>
        <mxCell id="UjU7s5MsbhjqXIAKfT-q-20" value="LED" style="shape=or;whiteSpace=wrap;html=1;rotation=-90;textDirection=vertical-lr;strokeColor=none;fillColor=#FF230B;fontColor=#FFFFFF;" vertex="1" parent="UjU7s5MsbhjqXIAKfT-q-25">
          <mxGeometry x="65" y="45" width="40" height="50" as="geometry" />
        </mxCell>
        <mxCell id="UjU7s5MsbhjqXIAKfT-q-24" style="edgeStyle=none;curved=1;rounded=0;orthogonalLoop=1;jettySize=auto;html=1;exitX=1;exitY=0.5;exitDx=0;exitDy=0;entryX=0;entryY=0.5;entryDx=0;entryDy=0;fontSize=12;startSize=8;endSize=8;" edge="1" parent="1" source="UjU7s5MsbhjqXIAKfT-q-14" target="UjU7s5MsbhjqXIAKfT-q-6">
          <mxGeometry relative="1" as="geometry" />
        </mxCell>
        <mxCell id="UjU7s5MsbhjqXIAKfT-q-27" style="edgeStyle=none;curved=1;rounded=0;orthogonalLoop=1;jettySize=auto;html=1;exitX=1;exitY=0.5;exitDx=0;exitDy=0;entryX=0;entryY=0.5;entryDx=0;entryDy=0;fontSize=12;startSize=8;endSize=8;" edge="1" parent="1" source="UjU7s5MsbhjqXIAKfT-q-26" target="UjU7s5MsbhjqXIAKfT-q-13">
          <mxGeometry relative="1" as="geometry" />
        </mxCell>
        <mxCell id="UjU7s5MsbhjqXIAKfT-q-26" value="Fuente de poder" style="rounded=1;whiteSpace=wrap;html=1;strokeColor=none;fillColor=#000000;fontColor=#FFFF01;" vertex="1" parent="1">
          <mxGeometry x="20" y="250" width="120" height="60" as="geometry" />
        </mxCell>
      </root>
    </mxGraphModel>
  </diagram>
</mxfile>
